<svg width="40" height="40" viewBox="0 0 40 40" fill="none" xmlns="http://www.w3.org/2000/svg">
<path fill-rule="evenodd" clip-rule="evenodd" d="M36.6667 20.0002C36.6667 10.7954 29.2042 3.3335 20 3.3335C10.7958 3.3335 3.33334 10.7954 3.33334 20.0002C3.33334 29.2039 10.7963 36.6668 20 36.6668C29.2037 36.6668 36.6667 29.2039 36.6667 20.0002ZM34.1667 20.0002C34.1667 27.8231 27.823 34.1668 20 34.1668C12.177 34.1668 5.83333 27.8231 5.83333 20.0002C5.83333 12.1761 12.1764 5.8335 20 5.8335C27.8236 5.8335 34.1667 12.1761 34.1667 20.0002ZM23.4072 14.9607C23.7713 14.4721 23.7325 13.7776 23.2897 13.3329C22.8026 12.8437 22.0111 12.8419 21.5219 13.329L15.7119 19.114L15.5903 19.2544C15.2253 19.7445 15.2658 20.4415 15.7119 20.8856L21.5219 26.6706L21.6624 26.7913C22.1525 27.1534 22.8469 27.1115 23.2897 26.6668L23.4104 26.5264C23.7724 26.0362 23.7306 25.3419 23.2859 24.899L18.3667 19.9982L23.2859 15.1006L23.4072 14.9607Z" fill="#2E2E5D"/>
</svg>
