<svg width="375" height="225" viewBox="0 0 375 225" fill="none" xmlns="http://www.w3.org/2000/svg">
<path fill-rule="evenodd" clip-rule="evenodd" d="M0 82.3333C82.4745 82.3333 149.333 15.4745 149.333 -67C149.333 -149.475 82.4745 -216.333 0 -216.333C-82.4745 -216.333 -149.333 -149.475 -149.333 -67C-149.333 15.4745 -82.4745 82.3333 0 82.3333ZM0 157C123.712 157 224 56.7118 224 -67C224 -190.712 123.712 -291 0 -291C-123.712 -291 -224 -190.712 -224 -67C-224 56.7118 -123.712 157 0 157Z" fill="#4838D1"/>
<path d="M424 157.5C424 194.779 394.003 225 357 225C319.997 225 290 194.779 290 157.5C290 120.221 319.997 90 357 90C394.003 90 424 120.221 424 157.5Z" fill="#F77A55"/>
</svg>
