<svg width="21" height="20" viewBox="0 0 21 20" fill="none" xmlns="http://www.w3.org/2000/svg">
<path d="M7.62931 18.7733V15.7156C7.62931 14.9351 8.26791 14.3023 9.05566 14.3023H11.9353C12.3136 14.3023 12.6763 14.4512 12.9438 14.7163C13.2113 14.9813 13.3616 15.3408 13.3616 15.7156V18.7733C13.3592 19.0978 13.4876 19.4099 13.7184 19.6402C13.9491 19.8705 14.2631 20 14.5906 20H16.5552C17.4727 20.0024 18.3535 19.6428 19.0032 19.0008C19.6528 18.3588 20.0179 17.487 20.0179 16.5778V7.86686C20.0179 7.13246 19.6893 6.43584 19.1208 5.96467L12.4376 0.675869C11.2751 -0.251438 9.60938 -0.221498 8.48153 0.746979L1.95083 5.96467C1.35544 6.42195 0.99958 7.12064 0.981995 7.86686V16.5689C0.981995 18.4639 2.5323 20 4.4447 20H6.36444C7.04465 20 7.59747 19.4562 7.6024 18.7822L7.62931 18.7733Z" fill="#4838D1"/>
</svg>
