<svg width="25" height="24" viewBox="0 0 25 24" fill="none" xmlns="http://www.w3.org/2000/svg">
<path fill-rule="evenodd" clip-rule="evenodd" d="M8.63038 22C8.2176 22 7.82586 21.968 7.45717 21.905L7.23875 21.864C4.86327 21.371 3.48267 19.555 3.48267 16.791V7.209C3.48267 6.875 3.5027 6.555 3.54278 6.249C3.89244 3.564 5.74093 2 8.63038 2H16.37C19.572 2 21.4866 3.92 21.5167 7.132V7.209V16.791C21.5167 20.048 19.5971 22 16.37 22H8.63038ZM8.63038 3.457C6.16974 3.457 4.92238 4.72 4.92238 7.209V16.791C4.92238 19.28 6.16974 20.543 8.63038 20.543H16.361C18.8206 20.543 20.06 19.28 20.06 16.791V7.209C20.06 4.72 18.8206 3.457 16.361 3.457H8.63038ZM16.8138 16.234C16.8138 15.834 16.4942 15.51 16.0995 15.51H8.87484C8.4801 15.51 8.15949 15.834 8.15949 16.234C8.15949 16.634 8.4801 16.958 8.87484 16.958H16.0995C16.4942 16.958 16.8138 16.634 16.8138 16.234ZM16.0995 11.271C16.375 11.241 16.6445 11.373 16.7918 11.61C16.9391 11.849 16.9391 12.151 16.7918 12.39C16.6445 12.627 16.375 12.759 16.0995 12.729H8.87484C8.50815 12.687 8.23062 12.374 8.23062 12C8.23062 11.626 8.50815 11.312 8.87484 11.271H16.0995ZM12.2763 7.771C12.2763 7.397 11.9987 7.083 11.632 7.042H8.88386C8.51617 7.083 8.23864 7.397 8.23864 7.771C8.23864 8.144 8.51617 8.458 8.88386 8.499H11.632C11.9987 8.458 12.2763 8.144 12.2763 7.771Z" fill="#6A6A8B"/>
</svg>
