<svg width="128" height="131" viewBox="0 0 128 131" fill="none" xmlns="http://www.w3.org/2000/svg">
<path d="M90.2642 0C80.3633 0 70.9983 3.84308 63.992 10.6579C56.9708 3.84308 47.6014 0 37.702 0C16.9042 0 0 16.9072 0 37.7035C0 82.6062 59.2568 126.902 61.7788 128.772L63.992 130.389L66.1874 128.772C68.7108 126.902 127.981 82.6062 127.981 37.7035C127.981 16.9072 111.06 0 90.2642 0ZM18.687 72.0329L14.2338 63.9192C14.1136 63.6372 13.9815 63.3685 13.8627 63.1162C13.2229 61.7802 12.6292 60.4443 12.08 59.1083C12.0369 58.9762 11.976 58.8708 11.9464 58.7818C11.9033 58.7061 11.8751 58.617 11.8588 58.5443H11.8439L11.8276 58.4997C9.06813 51.6419 7.42194 44.6341 7.42194 37.7035C7.42194 21.0041 21.0026 7.42194 37.702 7.42194C46.7998 7.42194 55.3365 11.458 61.1256 18.4955L63.992 21.9853L66.8568 18.4955C72.6296 11.458 81.1649 7.42194 90.2642 7.42194C106.978 7.42194 120.559 21.0041 120.559 37.7035C120.559 42.3051 119.832 46.9364 118.54 51.5231L118.527 51.5365V51.584C118.514 51.6137 118.499 51.6716 118.468 51.7443C117.592 54.863 116.434 57.9654 115.085 61.0395L111.374 68.4615L109.726 71.31L111.374 68.4615C110.839 69.41 110.289 70.36 109.726 71.31C107.113 75.7038 104.158 79.9655 101.024 84.0327C101.024 84.0475 101.011 84.0609 100.998 84.0743C87.1484 102.111 70.0038 116.348 63.992 121.098C57.1193 115.665 35.7708 97.9117 21.3574 76.2233C20.2901 74.6202 19.251 72.9874 18.2713 71.3382" fill="#2E2E5D"/>
<path fill-rule="evenodd" clip-rule="evenodd" d="M93.3779 33.8308C94.3515 33.8209 95.2063 34.4779 95.4496 35.4229L101.512 58.9738L103.715 42.3158C103.842 41.3616 104.593 40.612 105.545 40.4895C106.497 40.3669 107.413 40.9022 107.775 41.7936L111.78 51.642H121.864C123.033 51.642 123.981 52.5923 123.981 53.7646C123.981 54.937 123.033 55.8873 121.864 55.8873H110.357C109.496 55.8873 108.721 55.3649 108.396 54.5659L106.865 50.8013L104.28 70.3455C104.147 71.3527 103.32 72.124 102.309 72.1853C101.297 72.2466 100.384 71.5807 100.131 70.5969L93.4885 44.7948L90.6149 56.9703C90.3889 57.9279 89.536 58.6043 88.5544 58.6043H78.7664L74.8804 77.1445C74.6789 78.1062 73.8451 78.8035 72.8652 78.8299C71.8852 78.8563 71.0153 78.205 70.7624 77.2555L64.6794 54.4127L63.1057 70.2766C63.0135 71.2061 62.326 71.9659 61.4122 72.1483C60.4983 72.3307 59.573 71.8929 59.1326 71.0697L52.464 58.6043H36.471C35.7038 58.6043 34.9966 58.1882 34.6224 57.5168L33.1427 54.8614L30.3915 74.2894C30.2504 75.2863 29.43 76.0466 28.4276 76.1095C27.4252 76.1725 26.5165 75.5209 26.2523 74.5495L18.8317 47.2695L16.1316 59.6519C15.9191 60.6265 15.0582 61.3213 14.063 61.3213H4.98096V57.076H12.3585L16.5366 37.9151C16.7448 36.9603 17.5765 36.2714 18.5512 36.2465C19.5259 36.2216 20.3915 36.867 20.648 37.81L27.64 63.5144L29.8324 48.0324C29.9601 47.1305 30.6477 46.4108 31.541 46.244C32.4343 46.0771 33.3342 46.5002 33.7774 47.2955L37.7136 54.359H53.7312C54.5114 54.359 55.2285 54.7891 55.5972 55.4785L59.5795 62.9224L61.6169 42.3848C61.7181 41.3641 62.533 40.562 63.5529 40.4791C64.5727 40.3963 65.5058 41.0563 65.7697 42.0474L72.5627 67.5563L74.9754 56.0452C75.1813 55.0625 76.046 54.359 77.0476 54.359H86.8795L91.3388 35.4646C91.563 34.5148 92.4044 33.8407 93.3779 33.8308Z" fill="#2E2E5D"/>
</svg>
