<svg width="25" height="24" viewBox="0 0 25 24" fill="none" xmlns="http://www.w3.org/2000/svg">
<path fill-rule="evenodd" clip-rule="evenodd" d="M12.5 2C6.97716 2 2.5 6.47716 2.5 12C2.5 17.5228 6.97716 22 12.5 22C18.0228 22 22.5 17.5228 22.5 12C22.5 6.47716 18.0228 2 12.5 2ZM12.5 3.39535C17.2522 3.39535 21.1047 7.24779 21.1047 12C21.1047 16.7522 17.2522 20.6047 12.5 20.6047C7.74779 20.6047 3.89535 16.7522 3.89535 12C3.89535 7.24779 7.74779 3.39535 12.5 3.39535ZM11.3714 8.05454L11.2674 8.04465C11.0703 8.03789 10.8671 8.08735 10.6879 8.18402C10.4559 8.30819 10.2687 8.50941 10.1649 8.75855C10.1172 8.87387 10.0346 9.22989 9.99754 9.43665C9.90434 9.94479 9.85014 10.7263 9.84096 11.5838L9.83957 11.8723C9.83859 12.7822 9.88883 13.6482 9.98166 14.2189L10.0326 14.4811C10.0832 14.7142 10.1505 14.9626 10.2045 15.0673C10.4103 15.4649 10.8289 15.7104 11.2738 15.6963C11.4636 15.6921 11.8622 15.5596 12.1394 15.4432C13.1376 15.0232 14.8957 13.8463 15.708 13.0528L15.9777 12.772C16.081 12.6617 16.1275 12.6104 16.1668 12.5567C16.3137 12.357 16.3903 12.1158 16.3903 11.8715C16.3903 11.612 16.3048 11.3587 16.1418 11.152L16.0621 11.0598L15.8385 10.8211C15.0715 10.0036 13.0645 8.65585 12.0392 8.2575C11.8137 8.16838 11.5595 8.08299 11.3714 8.05454ZM11.406 9.51163L11.5302 9.55666C12.3166 9.86225 13.9854 10.9698 14.6974 11.6515L14.9093 11.8698L14.829 11.9564C14.2353 12.5965 12.4821 13.7852 11.5988 14.1568L11.4069 14.227L11.3585 13.9922C11.2889 13.5646 11.2447 12.8877 11.2363 12.151L11.2349 11.8723C11.2341 11.0688 11.2751 10.319 11.3458 9.83642L11.3798 9.63756L11.406 9.51163Z" fill="#2E2E5D"/>
</svg>
