<svg width="73" height="72" viewBox="0 0 73 72" fill="none" xmlns="http://www.w3.org/2000/svg">
<path fill-rule="evenodd" clip-rule="evenodd" d="M6.5 36.0174C6.5 19.4588 19.9653 6 36.5 6C53.0347 6 66.5 19.4588 66.5 36.0174C66.5 52.5412 53.0347 66 36.5 66C19.9653 66 6.5 52.5412 6.5 36.0174ZM47.5038 39.0538C47.8224 38.7354 48.2278 38.2434 48.3147 38.1276C48.778 37.5198 49.0096 36.7672 49.0096 36.0176C49.0096 35.1754 48.749 34.3939 48.2567 33.7571C48.2164 33.7168 48.1374 33.6308 48.0345 33.5188C47.8418 33.3091 47.5653 33.0082 47.3011 32.7441C44.9266 30.1971 38.7297 26.0292 35.4865 24.7557C34.9942 24.556 33.749 24.1189 33.083 24.09C32.4459 24.09 31.8378 24.2347 31.2587 24.5241C30.5347 24.9293 29.9556 25.5661 29.6371 26.3186C29.4344 26.8396 29.1158 28.4026 29.1158 28.4315C28.7973 30.1392 28.6235 32.9178 28.6235 35.9858C28.6235 38.912 28.7973 41.5719 29.0579 43.3085C29.0651 43.3157 29.09 43.4399 29.1287 43.6328C29.2463 44.2194 29.4914 45.4414 29.7529 45.9424C30.3899 47.158 31.6351 47.9105 32.9672 47.9105H33.083C33.9517 47.8816 35.7761 47.129 35.7761 47.1001C38.8455 45.8266 44.8977 41.8613 47.3301 39.2274L47.5038 39.0538Z" fill="#4838D1"/>
</svg>
