<svg width="25" height="24" viewBox="0 0 25 24" fill="none" xmlns="http://www.w3.org/2000/svg">
<path fill-rule="evenodd" clip-rule="evenodd" d="M12.5043 2C9.57027 2 7.19177 4.38864 7.19177 7.33517C7.19177 10.2817 9.57027 12.6703 12.5043 12.6703C15.4383 12.6703 17.8168 10.2817 17.8168 7.33517C17.8168 4.38864 15.4383 2 12.5043 2ZM12.5043 3.44767C14.6422 3.44767 16.3753 5.18816 16.3753 7.33517C16.3753 9.48218 14.6422 11.2227 12.5043 11.2227C10.3664 11.2227 8.63329 9.48218 8.63329 7.33517C8.63329 5.18816 10.3664 3.44767 12.5043 3.44767ZM10.33 14.8209C9.55233 14.8749 8.76621 14.9859 7.9908 15.1521C6.49418 15.4604 5.29685 16.0763 4.78724 17.0999C4.59503 17.5002 4.49839 17.9288 4.50002 18.3627C4.49944 18.7935 4.5953 19.2227 4.78062 19.6153C5.26994 20.6271 6.3278 21.1997 7.75624 21.5171L8.01213 21.5705C8.76648 21.7407 9.55284 21.8553 10.3445 21.909C10.4119 21.9288 10.5726 21.9472 10.748 21.9561L10.8922 21.9615C10.9664 21.9633 11.0506 21.9637 11.176 21.9637C12.3138 22.0263 13.4934 22.0081 14.6675 21.9081C15.2932 21.8653 15.9231 21.7835 16.5477 21.6636L17.0151 21.5666C18.5576 21.2623 19.7126 20.6836 20.2186 19.6164C20.5937 18.8241 20.5937 17.9047 20.2188 17.1127C19.714 16.0483 18.5737 15.4744 17.0034 15.1509C16.3873 15.0194 15.7612 14.922 15.1307 14.8599L14.6697 14.8209C13.2259 14.6935 11.7738 14.6935 10.33 14.8209ZM14.5436 16.263L14.5562 16.264C15.2799 16.3149 15.9991 16.4165 16.7087 16.568C17.8751 16.8083 18.6667 17.2067 18.9171 17.7348C19.1057 18.133 19.1057 18.5958 18.9169 18.9944C18.6829 19.4879 17.972 19.8691 16.9445 20.1021L16.7195 20.1498C15.996 20.3112 15.2791 20.4152 14.5576 20.4647C13.4379 20.5599 12.3249 20.5771 11.2148 20.5171L10.8212 20.5103C10.7119 20.5048 10.6198 20.4942 10.5345 20.4771C9.85872 20.4261 9.25066 20.3454 8.66027 20.2283L8.30775 20.1537C7.13771 19.9244 6.33915 19.5243 6.08024 18.989C5.98964 18.797 5.94125 18.5803 5.94154 18.3609C5.94073 18.1428 5.98848 17.931 6.08118 17.7379C6.33293 17.2324 7.17919 16.7971 8.28605 16.569C9.00073 16.4159 9.71962 16.3144 10.4429 16.264C11.816 16.143 13.1837 16.143 14.5436 16.263Z" fill="#0F0F29"/>
</svg>
