<svg width="132" height="20" viewBox="0 0 132 20" fill="none" xmlns="http://www.w3.org/2000/svg">
<path d="M17.7365 6.89649L12.7775 6.17579L10.5607 1.68165C10.5001 1.5586 10.4005 1.45899 10.2775 1.39844C9.96888 1.2461 9.59388 1.37305 9.43958 1.68165L7.22278 6.17579L2.2638 6.89649C2.12708 6.91602 2.00208 6.98048 1.90638 7.07813C1.79068 7.19705 1.72692 7.35704 1.72912 7.52294C1.73132 7.68884 1.79929 7.84708 1.9181 7.9629L5.50599 11.4609L4.65833 16.4004C4.63845 16.5153 4.65117 16.6335 4.69503 16.7415C4.7389 16.8496 4.81216 16.9432 4.90651 17.0117C5.00086 17.0802 5.11252 17.1209 5.22884 17.1292C5.34515 17.1375 5.46146 17.113 5.56458 17.0586L10.0001 14.7266L14.4357 17.0586C14.5568 17.1231 14.6974 17.1445 14.8322 17.1211C15.172 17.0625 15.4005 16.7402 15.3419 16.4004L14.4943 11.4609L18.0822 7.9629C18.1798 7.86719 18.2443 7.74219 18.2638 7.60548C18.3165 7.26368 18.0783 6.94727 17.7365 6.89649Z" fill="#F77A55"/>
<path d="M45.7365 6.89649L40.7775 6.17579L38.5607 1.68165C38.5001 1.5586 38.4005 1.45899 38.2775 1.39844C37.9689 1.2461 37.5939 1.37305 37.4396 1.68165L35.2228 6.17579L30.2638 6.89649C30.1271 6.91602 30.0021 6.98048 29.9064 7.07813C29.7907 7.19705 29.7269 7.35704 29.7291 7.52294C29.7313 7.68884 29.7993 7.84708 29.9181 7.9629L33.506 11.4609L32.6583 16.4004C32.6385 16.5153 32.6512 16.6335 32.695 16.7415C32.7389 16.8496 32.8122 16.9432 32.9065 17.0117C33.0009 17.0802 33.1125 17.1209 33.2288 17.1292C33.3452 17.1375 33.4615 17.113 33.5646 17.0586L38.0001 14.7266L42.4357 17.0586C42.5568 17.1231 42.6974 17.1445 42.8322 17.1211C43.172 17.0625 43.4005 16.7402 43.3419 16.4004L42.4943 11.4609L46.0822 7.9629C46.1798 7.86719 46.2443 7.74219 46.2638 7.60548C46.3165 7.26368 46.0783 6.94727 45.7365 6.89649Z" fill="#F77A55"/>
<path d="M73.7365 6.89649L68.7775 6.17579L66.5607 1.68165C66.5001 1.5586 66.4005 1.45899 66.2775 1.39844C65.9689 1.2461 65.5939 1.37305 65.4396 1.68165L63.2228 6.17579L58.2638 6.89649C58.1271 6.91602 58.0021 6.98048 57.9064 7.07813C57.7907 7.19705 57.7269 7.35704 57.7291 7.52294C57.7313 7.68884 57.7993 7.84708 57.9181 7.9629L61.506 11.4609L60.6583 16.4004C60.6385 16.5153 60.6512 16.6335 60.695 16.7415C60.7389 16.8496 60.8122 16.9432 60.9065 17.0117C61.0009 17.0802 61.1125 17.1209 61.2288 17.1292C61.3452 17.1375 61.4615 17.113 61.5646 17.0586L66.0001 14.7266L70.4357 17.0586C70.5568 17.1231 70.6974 17.1445 70.8322 17.1211C71.172 17.0625 71.4005 16.7402 71.3419 16.4004L70.4943 11.4609L74.0822 7.9629C74.1798 7.86719 74.2443 7.74219 74.2638 7.60548C74.3165 7.26368 74.0783 6.94727 73.7365 6.89649Z" fill="#F77A55"/>
<path d="M101.736 6.89649L96.7775 6.17579L94.5607 1.68165C94.5001 1.5586 94.4005 1.45899 94.2775 1.39844C93.9689 1.2461 93.5939 1.37305 93.4396 1.68165L91.2228 6.17579L86.2638 6.89649C86.1271 6.91602 86.0021 6.98048 85.9064 7.07813C85.7907 7.19705 85.7269 7.35704 85.7291 7.52294C85.7313 7.68884 85.7993 7.84708 85.9181 7.9629L89.506 11.4609L88.6583 16.4004C88.6385 16.5153 88.6512 16.6335 88.695 16.7415C88.7389 16.8496 88.8122 16.9432 88.9065 17.0117C89.0009 17.0802 89.1125 17.1209 89.2288 17.1292C89.3452 17.1375 89.4615 17.113 89.5646 17.0586L94.0001 14.7266L98.4357 17.0586C98.5568 17.1231 98.6974 17.1445 98.8322 17.1211C99.172 17.0625 99.4005 16.7402 99.3419 16.4004L98.4943 11.4609L102.082 7.9629C102.18 7.86719 102.244 7.74219 102.264 7.60548C102.317 7.26368 102.078 6.94727 101.736 6.89649Z" fill="#F77A55"/>
<path d="M129.736 6.89649L124.777 6.17579L122.561 1.68165C122.5 1.5586 122.4 1.45899 122.277 1.39844C121.969 1.2461 121.594 1.37305 121.44 1.68165L119.223 6.17579L114.264 6.89649C114.127 6.91602 114.002 6.98048 113.906 7.07813C113.791 7.19705 113.727 7.35704 113.729 7.52294C113.731 7.68884 113.799 7.84708 113.918 7.9629L117.506 11.4609L116.658 16.4004C116.638 16.5153 116.651 16.6335 116.695 16.7415C116.739 16.8496 116.812 16.9432 116.906 17.0117C117.001 17.0802 117.112 17.1209 117.229 17.1292C117.345 17.1375 117.461 17.113 117.565 17.0586L122 14.7266L126.436 17.0586C126.557 17.1231 126.697 17.1445 126.832 17.1211C127.172 17.0625 127.4 16.7402 127.342 16.4004L126.494 11.4609L130.082 7.9629C130.18 7.86719 130.244 7.74219 130.264 7.60548C130.317 7.26368 130.078 6.94727 129.736 6.89649ZM124.984 10.9688L125.69 15.0762L122 13.1387L118.311 15.0781L119.016 10.9707L116.031 8.06055L120.156 7.46094L122 3.72462L123.844 7.46094L127.969 8.06055L124.984 10.9688Z" fill="#F77A55"/>
</svg>
