<svg width="25" height="24" viewBox="0 0 25 24" fill="none" xmlns="http://www.w3.org/2000/svg">
<g clip-path="url(#clip0_13_23)">
<path d="M24.5 4.63595C23.6169 5.02754 22.6679 5.2922 21.6719 5.41126C22.6887 4.80188 23.4693 3.83692 23.8369 2.68717C22.8704 3.26071 21.8129 3.66482 20.7103 3.88201C19.812 2.9251 18.5324 2.32707 17.1162 2.32707C14.3968 2.32707 12.1921 4.5317 12.1921 7.25082C12.1921 7.63679 12.2357 8.01254 12.3196 8.37301C8.22744 8.1676 4.59931 6.20738 2.17072 3.22838C1.74697 3.9556 1.50416 4.80151 1.50416 5.70376C1.50416 7.41207 2.3735 8.9191 3.69462 9.80213C2.9127 9.77765 2.14798 9.56646 1.46431 9.1862C1.46403 9.20682 1.46403 9.22745 1.46403 9.24817C1.46403 11.6338 3.16128 13.6239 5.41372 14.0763C4.68864 14.2735 3.92809 14.3023 3.19016 14.1607C3.81669 16.1169 5.63516 17.5404 7.78972 17.5802C6.10456 18.9008 3.98141 19.688 1.67459 19.688C1.27709 19.688 0.885219 19.6646 0.5 19.6192C2.67903 21.0162 5.26719 21.8314 8.04781 21.8314C17.1047 21.8314 22.0573 14.3285 22.0573 7.82185C22.0573 7.60829 22.0526 7.39595 22.043 7.18482C23.007 6.48796 23.839 5.62484 24.5 4.63595Z" fill="#55ACEE"/>
</g>
<defs>
<clipPath id="clip0_13_23">
<rect width="24" height="24" fill="white" transform="translate(0.5)"/>
</clipPath>
</defs>
</svg>
