<svg width="24" height="24" viewBox="0 0 24 24" fill="none" xmlns="http://www.w3.org/2000/svg">
<path fill-rule="evenodd" clip-rule="evenodd" d="M2.0215 12.669C2.0215 10.2898 3.89543 8.34788 6.24774 8.23886L6.4565 8.23403H7.3895C7.80371 8.23403 8.1395 8.56981 8.1395 8.98403C8.1395 9.36372 7.85735 9.67752 7.49127 9.72718L7.3895 9.73403H6.4565C4.8936 9.73403 3.61576 10.956 3.52648 12.4966L3.5215 12.669L3.5215 17.544C3.5215 19.1061 4.74363 20.3838 6.28408 20.473L6.4565 20.478H17.5865C19.1493 20.478 20.4272 19.2561 20.5165 17.7164L20.5215 17.544V12.659C20.5215 11.1017 19.3039 9.82799 17.7693 9.73899L17.5975 9.73403H16.6545C16.2403 9.73403 15.9045 9.39824 15.9045 8.98403C15.9045 8.60433 16.1867 8.29054 16.5527 8.24087L16.6545 8.23403H17.5975C19.9687 8.23403 21.9046 10.1008 22.0164 12.4447L22.0215 12.659V17.544C22.0215 19.9225 20.1474 21.8642 17.7952 21.9732L17.5865 21.978H6.4565C4.07744 21.978 2.13536 20.1043 2.02633 17.7527L2.0215 17.544V12.669ZM11.4797 1.67184C11.6162 1.52929 11.8084 1.44053 12.0214 1.44053C12.2365 1.44053 12.4304 1.53107 12.5672 1.67612L15.4687 4.58959C15.761 4.88308 15.76 5.35795 15.4665 5.65025C15.1997 5.91596 14.783 5.93932 14.4899 5.72086L14.4059 5.64807L12.7714 4.008L12.7714 14.2315C12.7714 14.6457 12.4356 14.9815 12.0214 14.9815C11.6417 14.9815 11.3279 14.6994 11.2782 14.3333L11.2714 14.2315L11.2714 4.00632L9.63781 5.64798C9.37214 5.91483 8.95553 5.93997 8.66143 5.72277L8.57715 5.65034C8.31029 5.38466 8.28516 4.96805 8.50236 4.67396L8.57479 4.58968L11.4797 1.67184Z" fill="#2E2E5D"/>
</svg>
